<svg xmlns="http://www.w3.org/2000/svg" viewBox="0 0 429.68 429.68"><defs><style>.cls-1{fill:#fff;}</style></defs><g id="ecnc" data-name="ecnc"><path class="cls-1" d="M129,232.14c-3.3,11.61-6.49,22.82-9.7,34-1.92,6.71-1.94,6.71-9,6.71-25.64,0-51.27.09-76.9,0-17.61-.09-30.7-11.11-33.72-28.06a33.41,33.41,0,0,1-.38-5.83q0-47,0-94.07C-.72,125.65,13.84,111,33,111q42.75-.07,85.49,0c18.54,0,32.61,12.15,34,30.65a244.6,244.6,0,0,1-.19,42.1c-1.73,17.39-14.56,28.73-32,28.84-19.52.12-39,0-58.55.07-2.65,0-3.75-.28-2.83-3.39q5.1-17.17,9.69-34.49c.66-2.48,1.84-2.9,4.07-2.89,12,.09,23.94,0,35.91.1,2.64,0,3.69-.55,3.54-3.39a125,125,0,0,1,0-13.27c.16-2.88-.68-3.75-3.66-3.73-19.13.14-38.25,0-57.38.11-3.85,0-8.92-1.72-11.23.75s-.63,7.43-.64,11.31c-.06,21.59,0,43.19-.1,64.79,0,2.91.72,3.7,3.66,3.69,27.2-.12,54.39-.07,81.58-.07Zm151.39,17.74c-.05-16.78-13-30.18-29.79-30.29q-43.12-.28-86.25,0a29.73,29.73,0,0,0-29.84,29.82c-.15,41.76,0,83.52-.12,125.28,0,2.87,1,3.4,3.6,3.37,11.19-.12,22.38-.23,33.56.05,3.78.1,4.4-1.22,4.39-4.6-.11-36.42,0-72.85-.14-109.28,0-3.24.86-4.14,4.11-4.11q27.32.24,54.64,0c3.5,0,4.56.8,4.54,4.45-.14,36.43,0,72.85-.18,109.28,0,3.53,1,4.31,4.34,4.24,11.18-.21,22.37-.18,33.56,0,2.94.05,3.69-.79,3.67-3.69-.13-21.08-.07-42.15-.07-63.23C280.39,290.73,280.44,270.3,280.37,249.88Zm11.08-57.54c3.3,0,4.43-1.08,5.21-4.06,2.83-10.92,5.78-21.83,9-32.65,1-3.33.46-4.12-3-4.11-31,.12-61.91,0-92.87.14-2.86,0-3.71-.62-3.69-3.6q.24-26.73,0-53.47c0-3.61.65-4.79,4.57-4.76,23.94.21,47.87.07,71.81.16,2.81,0,3.91-.19,2.9-3.55q-4.89-16.41-9.07-33c-.76-3-2.19-3.43-4.85-3.43-24.71.08-49.43,0-74.14.05-17.45,0-30.2,11.84-30.41,29.22q-.53,41.74,0,83.51c.19,17.55,13,29.47,30.57,29.48q22.83,0,45.66,0C259.19,192.24,275.32,192.12,291.45,192.34Zm134,148.52c3.11,0,4.06-.58,3.06-3.85-3.3-10.8-6.47-21.64-9.42-32.54-.8-3-2.12-3.74-5.1-3.73-25.37.13-50.75,0-76.12.15-2.94,0-3.67-.77-3.65-3.68q.21-29.08,0-58.16c0-3.26.79-4.08,4.05-4.06,20.95.16,41.9,0,62.85.13,2.26,0,3.43-.47,4.06-2.87,3-11.56,6.13-23.08,9.32-34.6.69-2.5.24-3.32-2.57-3.31-29.41.11-58.82,0-88.22.14a29.4,29.4,0,0,0-29.32,29.74q-.14,42.75,0,85.5c.05,17.75,13.46,31,31.13,31.08q24.19,0,48.41,0C391.13,340.8,408.31,340.74,425.49,340.86Z"/></g></svg>