<svg width="16" height="16" viewBox="0 0 16 16" fill="none" xmlns="http://www.w3.org/2000/svg">
<g clip-path="url(#clip0)">
<path d="M4.41809 2.28263C6.25383 3.80877 7.81082 5.6419 9.01975 7.70044L10.2037 6.53068C10.7665 5.98164 11.4345 5.55207 12.1675 5.26779C11.8365 4.14133 11.2878 3.09069 10.5526 2.17529C10.5082 2.12055 10.4521 2.07641 10.3885 2.0461C10.3249 2.01578 10.2553 2.00005 10.1848 2.00006H4.51912C4.48584 1.99915 4.45313 2.00878 4.42566 2.02757C4.39818 2.04637 4.37736 2.07337 4.36615 2.10471C4.35494 2.13606 4.35393 2.17014 4.36326 2.2021C4.37259 2.23405 4.39178 2.26224 4.41809 2.28263Z" fill="currentColor"/>
<path d="M14.4751 9.5207V9.51123L14.5004 9.46387L14.4751 9.5207Z" fill="currentColor"/>
<path d="M7.70459 9.77471C8.57196 10.1435 9.46392 10.4516 10.374 10.6966C11.9984 11.1355 13.5392 10.4803 14.3 9.02802L15.2204 7.19367C15.4234 6.74565 15.6845 6.32634 15.9971 5.94657C15.1038 5.61896 14.136 5.55126 13.2059 5.75131C12.2758 5.95136 11.4214 6.41098 10.7418 7.07685L9.33846 8.47235C8.842 8.96368 8.29424 9.4003 7.70459 9.77471Z" fill="currentColor"/>
<path d="M1.27179 6.42041C1.24944 6.39711 1.22049 6.38123 1.18884 6.3749C1.15719 6.36856 1.12435 6.37208 1.09476 6.38498C1.06518 6.39789 1.04025 6.41955 1.02336 6.44705C1.00646 6.47456 0.998399 6.50658 1.00026 6.53881V11.5904V12.0829C1.00049 12.1598 1.01943 12.2355 1.05546 12.3034C1.09149 12.3714 1.14353 12.4295 1.20706 12.4728C2.92849 13.618 4.99002 14.1394 7.0489 13.9504C9.10777 13.7614 11.0399 12.8735 12.5242 11.4341C11.7578 11.6553 10.9449 11.6586 10.1768 11.4436C6.82709 10.5598 3.76072 8.83008 1.27179 6.42041Z" fill="currentColor"/>
</g>
<defs>
<clipPath id="clip0">
<rect width="15" height="11.9817" fill="white" transform="translate(1 2)"/>
</clipPath>
</defs>
</svg>
